<svg width="128" height="128" xmlns="http://www.w3.org/2000/svg">

 <g>
  <title>background</title>
  <rect fill="none" id="canvas_background" height="402" width="582" y="-1" x="-1"/>
 </g>
 <g>
  <title>Layer 1</title>
  <circle fill="#626e82" id="svg_2" r="64" cy="64" cx="64"/>
  <path fill="#ffffff" id="svg_3" d="m85,50l-5,0l0,-8c0,-8.8 -7.2,-16 -16,-16s-16,7.2 -16,16l0,8l-5,0c-2.2,0 -4,1.8 -4,4l0,42c0,2.2 1.8,4 4,4l42,0c2.2,0 4,-1.8 4,-4l0,-42c0,-2.2 -1.8,-4 -4,-4zm-15,34.5l-12,0l3.2,-8.2c-1.9,-1 -3.2,-3 -3.2,-5.3c0,-3.3 2.7,-6 6,-6c3.3,0 6,2.7 6,6c0,2.3 -1.3,4.3 -3.2,5.3l3.2,8.2zm6,-34.5l-24,0l0,-8c0,-6.6 5.4,-12 12,-12s12,5.4 12,12l0,8z" class="st0"/>
 </g>
</svg>