<svg xmlns="http://www.w3.org/2000/svg" viewBox="0 0 30 30">
    <path d="M 15 1 C 14.788 1 14.576062 1.0806875 14.414062 1.2421875 L 12.65625 3 C 10.621465 2.9995596 7 3 7 3 C 5.895 3 5 3.895 5 5 L 5 26 C 5 27.105 5.895 28 7 28 L 23 28 C 24.105 28 25 27.105 25 26 L 25 4.9960938 C 25 3.8910938 24.108906 3.0019531 23.003906 3.0019531 C 21.346239 3.0023068 19.86592 3.0022905 17.34375 3.0019531 L 17.34375 3 L 15.585938 1.2421875 C 15.423938 1.0806875 15.212 1 15 1 z M 9 9 C 9.552 9 10 9.448 10 10 C 10 10.552 9.552 11 9 11 C 8.448 11 8 10.552 8 10 C 8 9.448 8.448 9 9 9 z M 13 9 L 21 9 C 21.553 9 22 9.447 22 10 C 22 10.553 21.553 11 21 11 L 13 11 C 12.447 11 12 10.553 12 10 C 12 9.447 12.447 9 13 9 z M 9 13 C 9.552 13 10 13.448 10 14 C 10 14.552 9.552 15 9 15 C 8.448 15 8 14.552 8 14 C 8 13.448 8.448 13 9 13 z M 13 13 L 21 13 C 21.553 13 22 13.447 22 14 C 22 14.553 21.553 15 21 15 L 13 15 C 12.447 15 12 14.553 12 14 C 12 13.447 12.447 13 13 13 z M 9 17 C 9.552 17 10 17.448 10 18 C 10 18.552 9.552 19 9 19 C 8.448 19 8 18.552 8 18 C 8 17.448 8.448 17 9 17 z M 13 17 L 21 17 C 21.553 17 22 17.447 22 18 C 22 18.553 21.553 19 21 19 L 13 19 C 12.447 19 12 18.553 12 18 C 12 17.447 12.447 17 13 17 z M 9 21 C 9.552 21 10 21.448 10 22 C 10 22.552 9.552 23 9 23 C 8.448 23 8 22.552 8 22 C 8 21.448 8.448 21 9 21 z M 13 21 L 21 21 C 21.553 21 22 21.447 22 22 C 22 22.553 21.553 23 21 23 L 13 23 C 12.447 23 12 22.553 12 22 C 12 21.447 12.447 21 13 21 z"></path>
</svg>